<svg width="180" height="36" viewBox="0 0 180 36" fill="none" xmlns="http://www.w3.org/2000/svg">
<path d="M85.672 14.48C85.368 13.92 84.928 13.496 84.352 13.208C83.792 12.904 83.128 12.752 82.36 12.752C81.032 12.752 79.968 13.192 79.168 14.072C78.368 14.936 77.968 16.096 77.968 17.552C77.968 19.104 78.384 20.32 79.216 21.2C80.064 22.064 81.224 22.496 82.696 22.496C83.704 22.496 84.552 22.24 85.24 21.728C85.944 21.216 86.456 20.48 86.776 19.52H81.568V16.496H90.496V20.312C90.192 21.336 89.672 22.288 88.936 23.168C88.216 24.048 87.296 24.76 86.176 25.304C85.056 25.848 83.792 26.12 82.384 26.12C80.72 26.12 79.232 25.76 77.92 25.04C76.624 24.304 75.608 23.288 74.872 21.992C74.152 20.696 73.792 19.216 73.792 17.552C73.792 15.888 74.152 14.408 74.872 13.112C75.608 11.8 76.624 10.784 77.92 10.064C79.216 9.328 80.696 8.96 82.36 8.96C84.376 8.96 86.072 9.448 87.448 10.424C88.84 11.4 89.76 12.752 90.208 14.48H85.672ZM105.993 12.608V26H101.889V24.176C101.473 24.768 100.905 25.248 100.185 25.616C99.4813 25.968 98.6973 26.144 97.8333 26.144C96.8093 26.144 95.9053 25.92 95.1213 25.472C94.3373 25.008 93.7293 24.344 93.2973 23.48C92.8653 22.616 92.6493 21.6 92.6493 20.432V12.608H96.7293V19.88C96.7293 20.776 96.9613 21.472 97.4253 21.968C97.8893 22.464 98.5133 22.712 99.2973 22.712C100.097 22.712 100.729 22.464 101.193 21.968C101.657 21.472 101.889 20.776 101.889 19.88V12.608H105.993ZM117.101 12.464C118.669 12.464 119.917 12.976 120.845 14C121.789 15.008 122.261 16.4 122.261 18.176V26H118.181V18.728C118.181 17.832 117.949 17.136 117.485 16.64C117.021 16.144 116.397 15.896 115.613 15.896C114.829 15.896 114.205 16.144 113.741 16.64C113.277 17.136 113.045 17.832 113.045 18.728V26H108.941V12.608H113.045V14.384C113.461 13.792 114.021 13.328 114.725 12.992C115.429 12.64 116.221 12.464 117.101 12.464Z" fill="white"/>
<path d="M137.233 9.152V12.44H132.769V26H128.665V12.44H124.201V9.152H137.233ZM145.389 26.192C144.077 26.192 142.893 25.912 141.837 25.352C140.797 24.792 139.973 23.992 139.365 22.952C138.773 21.912 138.477 20.696 138.477 19.304C138.477 17.928 138.781 16.72 139.389 15.68C139.997 14.624 140.829 13.816 141.885 13.256C142.941 12.696 144.125 12.416 145.437 12.416C146.749 12.416 147.933 12.696 148.989 13.256C150.045 13.816 150.877 14.624 151.485 15.68C152.093 16.72 152.397 17.928 152.397 19.304C152.397 20.68 152.085 21.896 151.461 22.952C150.853 23.992 150.013 24.792 148.941 25.352C147.885 25.912 146.701 26.192 145.389 26.192ZM145.389 22.64C146.173 22.64 146.837 22.352 147.381 21.776C147.941 21.2 148.221 20.376 148.221 19.304C148.221 18.232 147.949 17.408 147.405 16.832C146.877 16.256 146.221 15.968 145.437 15.968C144.637 15.968 143.973 16.256 143.445 16.832C142.917 17.392 142.653 18.216 142.653 19.304C142.653 20.376 142.909 21.2 143.421 21.776C143.949 22.352 144.605 22.64 145.389 22.64ZM167.798 12.608V26H163.694V24.176C163.278 24.768 162.71 25.248 161.99 25.616C161.286 25.968 160.502 26.144 159.638 26.144C158.614 26.144 157.71 25.92 156.926 25.472C156.142 25.008 155.534 24.344 155.102 23.48C154.67 22.616 154.454 21.6 154.454 20.432V12.608H158.534V19.88C158.534 20.776 158.766 21.472 159.23 21.968C159.694 22.464 160.318 22.712 161.102 22.712C161.902 22.712 162.534 22.464 162.998 21.968C163.462 21.472 163.694 20.776 163.694 19.88V12.608H167.798ZM174.85 14.84C175.33 14.104 175.93 13.528 176.65 13.112C177.37 12.68 178.17 12.464 179.05 12.464V16.808H177.922C176.898 16.808 176.13 17.032 175.618 17.48C175.106 17.912 174.85 18.68 174.85 19.784V26H170.746V12.608H174.85V14.84Z" fill="#E5640E"/>
<path d="M32.1501 6.6993L14.9032 27.4427C12.7363 30.0488 14.5897 34 17.9789 34H52.4727C55.862 34 57.7153 30.0488 55.5485 27.4427L38.3016 6.6993C36.7022 4.7757 33.7494 4.7757 32.1501 6.6993Z" fill="#E5640E"/>
<path d="M22.6989 6.6993L5.452 27.4427C3.28517 30.0488 5.13849 34 8.52775 34H43.0215C46.4108 34 48.2641 30.0488 46.0973 27.4427L28.8504 6.6993C27.251 4.7757 24.2983 4.7757 22.6989 6.6993Z" fill="white"/>
</svg>
